<svg xmlns="http://www.w3.org/2000/svg" width="25" height="40" viewBox="-12.5 -12.5 25 40">
<path d="M0,26.4 L10.69,5.45 A12,12 0 1 0 -10.69,5.45 Z" fill="canvas" stroke="currentColor"/>
<path d="M-4.5,0 A4.5,4.5 0 0 1 4.5,0 A4.5,4.5 0 0 1 -4.5,0" fill="none" stroke="currentColor"/>
<path d="M0,24.2 L9.8,5 A11,11 0 1 0 -9.8,5 Z M-5.5,0 A5.5,5.5 0 0 1 5.5,0 A5.5,5.5 0 0 1 -5.5,0" fill="none" stroke="currentColor" stroke-opacity="0.5"/>
<path d="M0,23.1 L9.35,4.77 A10.5,10.5 0 1 0 -9.35,4.77 Z M-6,0 A6,6 0 0 1 6,0 A6,6 0 0 1 -6,0" fill="currentColor" fill-opacity="0.75"/>
</svg>
